<?xml version="1.0" standalone="no"?>
<!DOCTYPE svg PUBLIC "-//W3C//DTD SVG 20010904//EN"
 "http://www.w3.org/TR/2001/REC-SVG-20010904/DTD/svg10.dtd">
<svg version="1.0" xmlns="http://www.w3.org/2000/svg"
 width="556.000000pt" height="556.000000pt" viewBox="0 0 556.000000 556.000000"
 preserveAspectRatio="xMidYMid meet">
<metadata>
Created by potrace 1.14, written by Peter Selinger 2001-2017
</metadata>
<g transform="translate(0.000000,556.000000) scale(0.100000,-0.100000)"
fill="#000000" stroke="none">
<path d="M2738 5513 l-3 -48 -85 -2 c-47 -1 -119 -5 -160 -9 -41 -4 -92 -7
-112 -8 -21 -1 -38 -4 -38 -7 0 -3 -6 -6 -12 -6 -84 -2 -410 -91 -540 -147
-21 -9 -39 -16 -40 -15 -6 2 -279 -141 -307 -160 -16 -12 -33 -21 -37 -21 -4
0 -38 -22 -76 -50 -38 -27 -72 -50 -77 -50 -5 0 -11 -3 -13 -8 -1 -4 -23 -23
-48 -42 -25 -19 -50 -39 -56 -45 -6 -5 -31 -26 -55 -47 -69 -57 -178 -166
-249 -249 -105 -122 -111 -130 -178 -224 -215 -304 -371 -666 -446 -1040 -4
-16 -9 -41 -11 -55 -28 -141 -40 -289 -40 -505 0 -191 9 -324 31 -445 3 -14 7
-36 9 -50 10 -68 69 -308 84 -345 5 -11 28 -74 52 -140 51 -143 167 -377 244
-494 30 -46 55 -86 55 -89 0 -2 37 -51 81 -108 193 -246 374 -417 619 -585
115 -79 290 -174 410 -223 36 -15 74 -31 85 -36 37 -17 200 -69 285 -90 112
-29 120 -30 153 -32 15 -1 27 -4 27 -7 0 -3 15 -7 33 -8 17 -1 48 -4 67 -7 54
-8 176 -17 267 -19 l83 -2 0 -48 0 -48 235 2 c129 1 232 6 229 10 -2 4 4 8 13
7 30 -1 97 13 109 23 6 5 13 7 16 4 6 -7 189 44 205 57 7 6 13 8 13 5 0 -4 19
1 43 9 23 9 47 17 52 18 10 3 23 8 98 39 20 9 37 13 37 9 0 -4 4 -1 9 6 4 7
15 14 23 16 9 1 23 8 32 15 9 7 16 10 16 6 0 -5 8 -1 18 7 9 8 46 31 82 50 71
38 166 93 190 108 8 6 23 13 33 16 9 4 17 10 17 14 0 7 14 17 90 65 8 6 25 19
36 30 33 32 74 65 74 60 0 -17 268 251 340 340 36 44 73 89 83 99 24 28 127
178 156 229 13 23 27 44 30 47 3 3 13 21 22 40 43 92 102 218 115 242 8 14 14
33 14 42 0 9 5 16 10 16 6 0 10 6 10 14 0 7 11 39 25 70 14 31 22 56 19 56 -4
0 -1 7 6 15 7 8 9 15 5 15 -5 0 -1 8 8 18 8 9 16 20 16 25 -1 14 13 72 19 82
7 11 7 13 17 59 3 16 8 33 11 38 6 9 14 41 18 73 2 11 4 20 6 20 1 0 3 12 4
26 2 14 5 30 9 36 3 5 9 29 12 54 7 49 13 84 15 84 2 0 11 88 13 122 1 17 5
29 9 27 4 -3 8 137 8 310 0 174 -3 316 -7 316 -5 0 -8 12 -9 28 -2 45 -15 136
-29 206 -36 176 -77 329 -90 338 -5 4 -7 8 -3 8 4 0 -4 30 -18 68 -14 37 -26
73 -27 80 0 6 -3 12 -7 12 -4 0 -7 6 -7 14 0 13 -12 43 -49 120 -8 16 -14 35
-14 43 0 7 -4 13 -8 13 -4 0 -14 15 -20 34 -7 19 -31 67 -52 107 -22 39 -40
76 -40 80 0 5 -4 9 -10 9 -5 0 -10 5 -10 11 0 22 -188 292 -253 363 -12 13
-42 48 -67 77 -38 45 -90 96 -247 247 -13 12 -28 22 -33 22 -5 0 -18 12 -29
26 -12 15 -21 23 -21 18 0 -5 -4 -4 -8 1 -4 6 -36 32 -72 58 -36 27 -73 55
-83 63 -9 8 -21 14 -25 14 -5 0 -18 9 -30 20 -12 12 -22 18 -22 14 0 -4 -8 0
-17 9 -35 30 -289 163 -305 159 -5 -1 -8 3 -8 8 0 5 -3 9 -7 8 -5 -1 -21 5
-38 12 -16 7 -32 14 -35 15 -3 0 -15 6 -27 13 -13 7 -23 10 -23 7 0 -3 -13 1
-30 10 -16 9 -30 12 -30 8 0 -4 -5 -2 -12 5 -7 7 -20 12 -30 12 -10 0 -18 5
-18 11 0 5 -5 7 -10 4 -6 -4 -24 0 -40 9 -19 9 -28 10 -23 3 5 -9 3 -9 -8 0
-8 6 -26 14 -39 17 -14 3 -43 10 -64 15 -22 5 -43 8 -47 5 -4 -2 -9 0 -11 5
-1 5 -21 12 -43 15 -22 3 -65 9 -95 15 -30 5 -137 10 -237 10 l-182 2 -3 -48z"/>
</g>
</svg>
