<?xml version="1.0" standalone="no"?>
<!DOCTYPE svg PUBLIC "-//W3C//DTD SVG 20010904//EN"
 "http://www.w3.org/TR/2001/REC-SVG-20010904/DTD/svg10.dtd">
<svg version="1.0" xmlns="http://www.w3.org/2000/svg"
 width="1024.000000pt" height="1024.000000pt" viewBox="0 0 1024.000000 1024.000000"
 preserveAspectRatio="xMidYMid meet">
<metadata>
Created by potrace 1.14, written by Peter Selinger 2001-2017
</metadata>
<g transform="translate(0.000000,1024.000000) scale(0.100000,-0.100000)"
fill="#000000" stroke="none">
<path d="M1660 10233 c-134 -5 -351 -24 -432 -38 -366 -65 -699 -270 -916
-563 -138 -187 -234 -415 -271 -642 -36 -225 -36 -240 -36 -3870 0 -3630 0
-3645 36 -3870 37 -227 133 -455 271 -642 220 -298 566 -507 938 -567 225 -36
240 -36 3870 -36 3630 0 3645 0 3870 36 227 37 455 133 642 271 298 220 507
566 567 938 36 225 36 240 36 3870 0 3630 0 3645 -36 3870 -37 227 -133 455
-271 642 -221 300 -570 510 -943 567 -218 34 -245 34 -3760 36 -1920 1 -3524
0 -3565 -2z m2467 -4555 c-3 -1894 -1 -1827 -53 -2068 -72 -333 -236 -594
-476 -754 -167 -111 -341 -177 -568 -217 -149 -27 -532 -37 -688 -19 -319 36
-573 152 -778 355 -272 269 -394 645 -394 1211 l0 184 414 0 413 0 6 -222 c6
-249 22 -363 66 -490 40 -112 75 -173 133 -230 96 -94 238 -138 443 -138 218
0 352 45 463 156 104 104 160 251 182 478 6 71 10 700 10 1806 0 933 3 1700 7
1703 3 4 190 7 415 7 l409 0 -4 -1762z m1835 693 l3 -1070 1045 1069 1045
1069 508 1 c279 0 507 -3 507 -7 0 -5 -421 -429 -936 -944 l-936 -937 973
-1368 c535 -753 988 -1390 1007 -1417 l34 -47 -522 2 -523 3 -758 1105 c-418
608 -764 1112 -769 1120 -7 12 -80 -55 -343 -315 l-334 -330 -2 -792 -1 -793
-415 0 -415 0 0 2360 0 2360 415 0 415 0 2 -1069z"/>
</g>
</svg>
